REM DIRINDEX 1\2,1\4,1\5,1\6,1\7,1\3\8,1\3\9,1\3\10
REM DIRNAME folder01,folder02,folder03,folder04,folder05,folder06,folder07,folder08,folder09,folder10
TITLE ""
FILE "DB4500_5th_1A_12.mp3" MP3
  TRACK 01 AUDIO
    TITLE "8:cjc113_0508"
    INDEX 01 00:00:00
  TRACK 02 AUDIO
    TITLE "0:"
    INDEX 01 00:01:21
  TRACK 03 AUDIO
    TITLE "9:cjc113_0509"
    INDEX 01 00:01:34
  TRACK 04 AUDIO
    TITLE "0:"
    INDEX 01 00:02:67
  TRACK 05 AUDIO
    TITLE "10:cjc113_0510"
    INDEX 01 00:03:15
  TRACK 06 AUDIO
    TITLE "0:"
    INDEX 01 00:06:02
  TRACK 07 AUDIO
    TITLE "8:cjc113_0511"
    INDEX 01 00:06:47
  TRACK 08 AUDIO
    TITLE "0:"
    INDEX 01 00:07:56
  TRACK 09 AUDIO
    TITLE "9:cjc113_0512"
    INDEX 01 00:08:03
  TRACK 10 AUDIO
    TITLE "0:"
    INDEX 01 00:09:10
  TRACK 11 AUDIO
    TITLE "10:cjc113_0513"
    INDEX 01 00:09:32
  TRACK 12 AUDIO
    TITLE "0:"
    INDEX 01 00:12:40
  TRACK 13 AUDIO
    TITLE "8:cjc113_0514"
    INDEX 01 00:13:12
  TRACK 14 AUDIO
    TITLE "0:"
    INDEX 01 00:14:19
  TRACK 15 AUDIO
    TITLE "9:cjc113_0515"
    INDEX 01 00:14:45
  TRACK 16 AUDIO
    TITLE "0:"
    INDEX 01 00:15:56
  TRACK 17 AUDIO
    TITLE "10:cjc113_0516"
    INDEX 01 00:16:02
  TRACK 18 AUDIO
    TITLE "0:"
    INDEX 01 00:18:31
  TRACK 19 AUDIO
    TITLE "8:cjc113_0517"
    INDEX 01 00:19:05
  TRACK 20 AUDIO
    TITLE "0:"
    INDEX 01 00:20:14
  TRACK 21 AUDIO
    TITLE "9:cjc113_0518"
    INDEX 01 00:20:36
  TRACK 22 AUDIO
    TITLE "0:"
    INDEX 01 00:21:64
  TRACK 23 AUDIO
    TITLE "10:cjc113_0519"
    INDEX 01 00:22:15
  TRACK 24 AUDIO
    TITLE "0:"
    INDEX 01 00:26:34
  TRACK 25 AUDIO
    TITLE "8:cjc113_0520"
    INDEX 01 00:27:04
  TRACK 26 AUDIO
    TITLE "0:"
    INDEX 01 00:28:17
  TRACK 27 AUDIO
    TITLE "9:cjc113_0521"
    INDEX 01 00:28:39
  TRACK 28 AUDIO
    TITLE "0:"
    INDEX 01 00:29:62
  TRACK 29 AUDIO
    TITLE "10:cjc113_0522"
    INDEX 01 00:30:06
  TRACK 30 AUDIO
    TITLE "0:"
    INDEX 01 00:33:11
  TRACK 31 AUDIO
    TITLE "8:cjc113_0523"
    INDEX 01 00:33:54
  TRACK 32 AUDIO
    TITLE "0:"
    INDEX 01 00:34:61
  TRACK 33 AUDIO
    TITLE "9:cjc113_0524"
    INDEX 01 00:35:10
  TRACK 34 AUDIO
    TITLE "0:"
    INDEX 01 00:36:58
  TRACK 35 AUDIO
    TITLE "10:cjc113_0525"
    INDEX 01 00:37:03
  TRACK 36 AUDIO
    TITLE "0:"
    INDEX 01 00:40:38
  TRACK 37 AUDIO
    TITLE "8:cjc113_0526"
    INDEX 01 00:41:06
  TRACK 38 AUDIO
    TITLE "0:"
    INDEX 01 00:42:18
  TRACK 39 AUDIO
    TITLE "9:cjc113_0527"
    INDEX 01 00:42:37
  TRACK 40 AUDIO
    TITLE "0:"
    INDEX 01 00:43:70
  TRACK 41 AUDIO
    TITLE "10:cjc113_0528"
    INDEX 01 00:44:16
  TRACK 42 AUDIO
    TITLE "0:"
    INDEX 01 00:46:58
  TRACK 43 AUDIO
    TITLE "8:cjc113_0529"
    INDEX 01 00:47:32
  TRACK 44 AUDIO
    TITLE "0:"
    INDEX 01 00:48:48
  TRACK 45 AUDIO
    TITLE "9:cjc113_0530"
    INDEX 01 00:48:73
  TRACK 46 AUDIO
    TITLE "0:"
    INDEX 01 00:51:38
  TRACK 47 AUDIO
    TITLE "10:cjc113_0531"
    INDEX 01 00:51:60
  TRACK 48 AUDIO
    TITLE "0:"
    INDEX 01 00:54:07
  TRACK 49 AUDIO
    TITLE "8:cjc113_0532"
    INDEX 01 00:54:50
  TRACK 50 AUDIO
    TITLE "0:"
    INDEX 01 00:55:59
  TRACK 51 AUDIO
    TITLE "9:cjc113_0533"
    INDEX 01 00:56:08
  TRACK 52 AUDIO
    TITLE "0:"
    INDEX 01 00:58:13
  TRACK 53 AUDIO
    TITLE "10:cjc113_0534"
    INDEX 01 00:58:34
  TRACK 54 AUDIO
    TITLE "0:"
    INDEX 01 01:01:07
  TRACK 55 AUDIO
    TITLE "8:cjc113_0535"
    INDEX 01 01:01:52
  TRACK 56 AUDIO
    TITLE "0:"
    INDEX 01 01:02:65
  TRACK 57 AUDIO
    TITLE "9:cjc113_0536"
    INDEX 01 01:03:14
  TRACK 58 AUDIO
    TITLE "0:"
    INDEX 01 01:05:50
  TRACK 59 AUDIO
    TITLE "10:cjc113_0537"
    INDEX 01 01:05:69
  TRACK 60 AUDIO
    TITLE "0:"
    INDEX 01 01:07:68
  TRACK 61 AUDIO
    TITLE "8:cjc113_0538"
    INDEX 01 01:08:40
  TRACK 62 AUDIO
    TITLE "0:"
    INDEX 01 01:09:59
  TRACK 63 AUDIO
    TITLE "9:cjc113_0539"
    INDEX 01 01:10:08
  TRACK 64 AUDIO
    TITLE "0:"
    INDEX 01 01:12:11
  TRACK 65 AUDIO
    TITLE "10:cjc113_0540"
    INDEX 01 01:12:34
  TRACK 66 AUDIO
    TITLE "0:"
    INDEX 01 01:15:17
